HIERARCHY
ROOT Hips
{
	OFFSET 0.000000 88.474243 0.000000
	CHANNELS 6 Xposition Yposition Zposition Zrotation Yrotation Xrotation 
	JOINT Hips_Spine
	{
		OFFSET 0.000000 0.000000 0.000000
		CHANNELS 3 Zrotation Yrotation Xrotation
		JOINT Spine
		{
			OFFSET 0.005100 8.711998 -0.691000
			CHANNELS 3 Zrotation Yrotation Xrotation
			JOINT Spine1
			{
				OFFSET -0.009200 8.660301 -1.275000
				CHANNELS 3 Zrotation Yrotation Xrotation
				JOINT Spine2
				{
					OFFSET 0.006300 9.852501 -1.857000
					CHANNELS 3 Zrotation Yrotation Xrotation
					JOINT Spine2_Neck
					{
						OFFSET 0.000000 0.000000 0.000000
						CHANNELS 3 Zrotation Yrotation Xrotation
						JOINT Neck
						{
							OFFSET 0.016300 11.420799 -0.263300
							CHANNELS 3 Zrotation Yrotation Xrotation
							End Site #name: Head
							{
								OFFSET -0.019200 9.262405 2.362500
							}
						}
					}
					JOINT Spine2_LeftShoulder
					{
						OFFSET 0.000000 0.000000 0.000000
						CHANNELS 3 Zrotation Yrotation Xrotation
						JOINT LeftShoulder
						{
							OFFSET 5.616900 6.732201 -0.345700
							CHANNELS 3 Zrotation Yrotation Xrotation
							JOINT LeftArm
							{
								OFFSET 10.664888 -0.183372 -2.440700
								CHANNELS 3 Zrotation Yrotation Xrotation
								JOINT LeftForeArm
								{
									OFFSET 27.459126 0.000000 0.000000
									CHANNELS 3 Zrotation Yrotation Xrotation
									End Site #name: LeftHand
									{
										OFFSET 21.306858 0.000000 0.000000
									}
								}
							}
						}
					}
					JOINT Spine2_RightShoulder
					{
						OFFSET 0.000000 0.000000 0.000000
						CHANNELS 3 Zrotation Yrotation Xrotation
						JOINT RightShoulder
						{
							OFFSET -5.580300 6.737503 -0.344400
							CHANNELS 3 Zrotation Yrotation Xrotation
							JOINT RightArm
							{
								OFFSET -10.679335 -0.188484 -2.383900
								CHANNELS 3 Zrotation Yrotation Xrotation
								JOINT RightForeArm
								{
									OFFSET -27.503529 0.000000 0.000000
									CHANNELS 3 Zrotation Yrotation Xrotation
									End Site #name: RightHand
									{
										OFFSET -21.306808 0.000000 0.000000
									}
								}
							}
						}
					}
				}
			}
		}
	}
	JOINT Hips_LeftUpLeg
	{
		OFFSET 0.000000 0.000000 0.000000
		CHANNELS 3 Zrotation Yrotation Xrotation
		JOINT LeftUpLeg
		{
			OFFSET 6.857700 -6.739601 0.312100
			CHANNELS 3 Zrotation Yrotation Xrotation
			JOINT LeftLeg
			{
				OFFSET -0.367590 -34.731552 -4.572400
				CHANNELS 3 Zrotation Yrotation Xrotation
				End Site #name: LeftFoot
				{
					OFFSET 0.367590 -34.656704 -6.067400
				}
			}
		}
	}
	JOINT Hips_RightUpLeg
	{
		OFFSET 0.000000 0.000000 0.000000
		CHANNELS 3 Zrotation Yrotation Xrotation
		JOINT RightUpLeg
		{
			OFFSET -6.876100 -6.733299 0.301000
			CHANNELS 3 Zrotation Yrotation Xrotation
			JOINT RightLeg
			{
				OFFSET 0.347353 -34.795158 -4.515900
				CHANNELS 3 Zrotation Yrotation Xrotation
				End Site #name: RightFoot
				{
					OFFSET -0.347353 -34.589367 -6.070300
				}
			}
		}
	}
}
MOTION
Frames: 14
Frame Time: 0.041667
0.052755 0.006578 0.012464 -1.012477 -3.405950 -1.991957 0.000000 -0.000000 0.000000 0.839882 1.289855 8.258969 -0.619915 0.903862 0.321730 0.000000 0.000000 0.000000 -0.204629 0.023539 -1.892004 1.235308 -1.755424 4.745986 -1.431583 -0.197101 0.090385 -5.149026 -6.191644 1.591237 -64.531409 4.740273 41.770306 0.151017 -24.686536 -0.270800 -0.380355 0.620249 0.429320 10.822491 -2.693899 1.859436 61.868487 23.558380 17.277522 179.043952 62.077417 179.830282 0.000000 0.000000 0.000000 -0.041890 8.358153 -16.781479 4.030297 4.981358 19.613219 0.000000 0.000000 0.000000 -1.879945 -9.886455 -11.323188 -1.591605 -2.760758 17.443221 
0.070027 0.048350 -0.044614 -1.118267 -3.189692 -1.750940 0.000000 0.000000 0.000000 -0.375320 0.425782 4.163027 -0.775497 0.531042 1.103021 0.000000 0.000000 0.000000 -0.509115 -0.222860 0.136398 3.087900 -1.433962 5.445142 -0.456804 -0.280166 0.992644 -4.016428 1.819651 0.302860 -61.868155 6.176256 46.527985 0.162467 -20.816196 0.255117 -1.066829 -0.059797 0.834098 9.740022 -1.584586 0.746797 58.990277 31.622567 3.165070 179.268795 49.829134 179.842105 0.000000 0.000000 -0.000000 0.639366 10.271907 -15.985863 3.181551 4.971006 18.023327 0.000000 0.000000 0.000000 -2.006050 -10.033571 -11.717921 -1.633563 -2.752248 17.259713 
0.167040 0.041547 -0.104903 -1.388283 -3.241045 -1.565322 0.000000 0.000000 0.000000 -0.555868 0.228834 3.689665 -0.651192 0.252088 1.727748 0.000000 0.000000 0.000000 -0.756425 -0.326971 0.589432 2.940661 -1.242163 4.764885 -0.783591 -0.029257 2.240695 -6.268391 4.039345 -0.111982 -62.496552 3.212061 40.509448 0.074394 -15.434841 0.074654 -1.118484 -0.092971 1.435184 10.160521 -2.232287 0.363700 53.615633 27.967615 0.038977 179.479171 51.601750 -179.903793 0.000000 0.000000 -0.000000 1.107679 11.415040 -16.375580 3.287018 5.055565 18.225706 -0.000000 0.000000 0.000000 -1.852487 -9.877617 -11.813782 -1.212517 -2.550059 16.863022 
0.286856 0.028221 -0.170148 -1.648672 -3.243398 -1.386411 0.000000 0.000000 0.000000 -0.799849 0.456657 4.124233 -0.766712 0.132941 2.439493 0.000000 0.000000 0.000000 -0.871087 -0.303103 1.250332 2.016919 -1.623446 5.881789 -0.982407 -0.126706 2.480611 -5.994489 5.052052 -0.433957 -65.090366 0.409122 37.388780 0.037692 -12.333935 0.098189 -1.143990 -0.119267 2.002348 9.554115 -2.788136 0.327599 50.188600 31.265226 -3.887350 179.406532 46.685524 -179.824985 -0.000000 0.000000 -0.000000 1.345642 11.962316 -16.734077 3.536062 5.132618 18.442283 -0.000000 0.000000 0.000000 -1.720827 -9.798955 -11.970649 -0.589951 -1.889108 16.948454 
0.428544 0.019508 -0.231653 -1.847151 -3.252041 -1.282272 0.000000 0.000000 0.000000 -1.008786 0.754204 4.596270 -1.004901 0.099064 2.609815 0.000000 0.000000 0.000000 -1.130123 -0.301857 1.389991 1.781977 -2.011777 7.060238 -1.163544 -0.286938 2.544071 -5.627465 5.337252 -0.487747 -66.750998 -1.524925 35.444954 0.032120 -10.810651 0.100182 -1.387979 -0.150011 2.313162 9.530300 -3.567153 0.272857 49.022949 35.242306 -5.997201 179.460952 42.777053 -179.746943 -0.000000 0.000000 -0.000000 1.477465 12.178545 -16.993093 3.642787 5.061442 18.748112 -0.000000 0.000000 0.000000 -1.675332 -9.613041 -12.055800 -0.248031 -1.721009 17.048482 
0.575010 0.013397 -0.289188 -1.972574 -3.316165 -1.231315 0.000000 -0.000000 0.000000 -1.150216 0.812677 4.872819 -1.217006 0.095929 2.671466 0.000000 0.000000 0.000000 -1.326399 -0.335823 1.465165 2.027346 -2.302881 7.874390 -1.290052 -0.404378 2.657410 -5.308402 5.147533 -0.441718 -68.239408 -2.783515 33.993288 0.056247 -9.992270 0.084471 -1.593852 -0.212432 2.375396 9.321127 -3.619127 0.277867 48.585781 37.562299 -7.348105 179.427364 41.524379 -179.720067 -0.000000 0.000000 -0.000000 1.539556 12.297459 -17.126502 3.650592 4.908087 18.996460 -0.000000 0.000000 0.000000 -1.644627 -9.453223 -12.052266 -0.105651 -1.692927 16.991913 
0.712782 0.008417 -0.344496 -2.057295 -3.392497 -1.187176 0.000000 -0.000000 0.000000 -1.141486 0.776609 5.051693 -1.312156 0.076096 2.696466 0.000000 0.000000 0.000000 -1.442434 -0.362885 1.492561 2.511361 -2.513112 8.386244 -1.375375 -0.434514 2.691705 -4.975224 5.290507 -0.452548 -69.076229 -3.544466 32.726883 0.084071 -10.063699 0.109803 -1.696880 -0.232056 2.345604 8.907595 -3.449541 0.296430 48.621861 38.538855 -7.735993 179.404793 40.803738 -179.737783 -0.000000 0.000000 -0.000000 1.561746 12.377631 -17.218858 3.611554 4.708796 19.147024 -0.000000 0.000000 0.000000 -1.620930 -9.426229 -12.083407 -0.057632 -1.654232 16.962424 
0.829080 0.003557 -0.396193 -2.132432 -3.439060 -1.129803 0.000000 -0.000000 0.000000 -1.114153 0.786442 5.143003 -1.360492 0.094001 2.693830 0.000000 0.000000 0.000000 -1.519165 -0.341602 1.480881 2.897163 -2.714314 8.760035 -1.430502 -0.397664 2.688653 -4.720192 5.578100 -0.490518 -69.301111 -3.736404 32.078866 0.094859 -10.729215 0.126897 -1.768843 -0.185318 2.300317 8.395062 -3.283795 0.318898 48.730909 38.589826 -7.864641 179.396007 40.704337 -179.741404 -0.000000 0.000000 -0.000000 1.569723 12.423875 -17.311311 3.572788 4.495919 19.213324 -0.000000 0.000000 0.000000 -1.581226 -9.465454 -12.173135 -0.051905 -1.638052 17.009866 
0.910918 -0.002066 -0.442012 -2.210304 -3.463606 -1.067875 0.000000 -0.000000 0.000000 -1.106920 0.806513 5.180320 -1.398684 0.130154 2.691462 0.000000 0.000000 0.000000 -1.588114 -0.301752 1.472849 3.179668 -2.875211 8.939495 -1.487621 -0.327011 2.682034 -4.501859 5.947991 -0.540756 -69.253909 -3.487660 31.899656 0.092903 -11.295289 0.134157 -1.839648 -0.129005 2.263294 7.888869 -3.174079 0.334141 48.528269 38.428187 -8.167829 179.388920 40.905024 -179.742952 -0.000000 0.000000 -0.000000 1.587538 12.449032 -17.412837 3.539668 4.297347 19.262797 -0.000000 0.000000 0.000000 -1.520239 -9.520153 -12.285605 -0.046759 -1.616885 17.105888 
0.962741 -0.008105 -0.482257 -2.278369 -3.472560 -1.016126 0.000000 -0.000000 0.000000 -1.122772 0.816835 5.224611 -1.440425 0.154361 2.688750 0.000000 0.000000 0.000000 -1.657663 -0.270982 1.453452 3.326667 -2.959698 8.969741 -1.544961 -0.277219 2.664070 -4.343674 6.256122 -0.594051 -69.100749 -3.083201 31.991173 0.088022 -11.733215 0.139132 -1.914033 -0.085238 2.234113 7.446867 -3.131166 0.345116 48.087918 38.253976 -8.644183 179.383918 41.113368 -179.748334 0.000000 0.000000 -0.000000 1.620126 12.464346 -17.492186 3.514970 4.140438 19.281561 -0.000000 0.000000 0.000000 -1.457734 -9.577390 -12.387194 -0.041224 -1.601754 17.218926 
0.989028 -0.014167 -0.517724 -2.327878 -3.447200 -0.979969 0.000000 -0.000000 0.000000 -1.156239 0.829516 5.295915 -1.483838 0.167645 2.680467 0.000000 0.000000 0.000000 -1.727087 -0.259063 1.431987 3.391252 -2.996833 8.941011 -1.602680 -0.247663 2.645460 -4.218745 6.466478 -0.633298 -68.965213 -2.661686 32.156623 0.082940 -11.994292 0.141571 -1.986829 -0.060568 2.209852 7.045409 -3.128953 0.352694 47.295308 38.195035 -9.373806 179.374621 41.286839 -179.753694 0.000000 0.000000 -0.000000 1.652186 12.478456 -17.560858 3.495123 4.010660 19.304315 -0.000000 0.000000 0.000000 -1.399885 -9.633658 -12.469374 -0.036651 -1.596896 17.331952 
0.994200 -0.019994 -0.549577 -2.352821 -3.377590 -0.959331 0.000000 -0.000000 0.000000 -1.204746 0.842688 5.380004 -1.525291 0.173903 2.679918 0.000000 0.000000 0.000000 -1.786638 -0.251680 1.420920 3.425928 -3.008307 8.877867 -1.654256 -0.235602 2.635331 -4.111119 6.631763 -0.664989 -68.874692 -2.327169 32.322008 0.078444 -12.097630 0.147092 -2.049940 -0.043766 2.203012 6.694056 -3.165145 0.356093 46.469499 38.258285 -10.225601 179.361157 41.334218 -179.761361 0.000000 0.000000 -0.000000 1.672628 12.483936 -17.613463 3.473699 3.895515 19.317383 0.000000 0.000000 0.000000 -1.357676 -9.683321 -12.520313 -0.029363 -1.587224 17.420623 
0.982504 -0.025346 -0.578949 -2.350725 -3.275440 -0.953694 0.000000 -0.000000 0.000000 -1.249510 0.857793 5.466940 -1.561240 0.181595 2.683993 0.000000 0.000000 0.000000 -1.836510 -0.245027 1.421870 3.450863 -3.014066 8.829590 -1.694158 -0.227465 2.634165 -4.039977 6.734145 -0.686246 -68.846806 -2.106634 32.410865 0.078527 -12.124120 0.151530 -2.098377 -0.032783 2.210122 6.420990 -3.230698 0.351449 45.691786 38.370229 -11.057523 179.344533 41.325841 -179.768745 0.000000 0.000000 -0.000000 1.678767 12.489352 -17.647947 3.452848 3.787718 19.311316 0.000000 0.000000 0.000000 -1.332948 -9.739481 -12.550323 -0.019474 -1.569249 17.493857 
0.956249 -0.030407 -0.606466 -2.332032 -3.147784 -0.956083 0.000000 -0.000000 0.000000 -1.289310 0.868272 5.537065 -1.588646 0.190300 2.695277 0.000000 0.000000 0.000000 -1.875790 -0.234183 1.429958 3.486369 -3.021418 8.802523 -1.724021 -0.219430 2.644283 -3.984343 6.812831 -0.698857 -68.847631 -1.973516 32.442472 0.079214 -12.108476 0.157091 -2.135042 -0.022846 2.227439 6.201958 -3.282965 0.348698 45.012804 38.501863 -11.806283 179.326848 41.271326 -179.778609 0.000000 0.000000 -0.000000 1.676112 12.489869 -17.668296 3.428628 3.680827 19.302572 0.000000 0.000000 0.000000 -1.320331 -9.790326 -12.567381 -0.011527 -1.548512 17.562153 
